# xmcd CD database file
#
# Track frame offsets:
#	150
#	12217
#	26700
#	40277
#	54618
#	67998
#	97161
#	117477
#	133052
#	148061
#	161067
#	176872
#	191219
#	203493
#	217178
#	231772
#	246371
#	258019
#	271393
#	283674
#	297476
#	310446
#	322288
#	342623
#
# Disc length: 4752 seconds
#
# Revision: 0
# Processed by: cddbd v1.5.2PL0 Copyright (c) Steve Scherf et al.
# Submitted via: CDex 1.70beta2
#
DISCID=91128e18
DTITLE=Various Artist - The Story Of Big Bands 1914 - 1955 (5)
DYEAR=2006
DGENRE=Jazz
TTITLE0=Count Basie And His Orchestra, Tickle Toe
TTITLE1=Duke Ellington And His Famous Orchestra, Cotton Tail
TTITLE2=Benny Carter And His Orchestra, Okay For Baby
TTITLE3=Charlie Barnet And His Orchestra, Rockin' In Rhythm
TTITLE4=Horace Henderson And His Orchestra, Smooth Sailing
TTITLE5=Artie Shaw And His Orchestra, Blues My Naughty Sweetie Gives To Me (Parts 1 and 2)
TTITLE6=Benny Goodman And His Orchestra, Superman
TTITLE7=Metronome All Stars, One O'Clock Jump
TTITLE8=Woody herman And His Orchestra, Blue Flame
TTITLE9=Duke Ellington And His Famous Orchestra, Take The 'A' Train
TTITLE10=Tommy Dorsey And His Orchestra, Yes Indeed!
TTITLE11=Count Basie And His Orchestra, 9.20 Special
TTITLE12=Jay McShann And His Orchestra, Swingmatism
TTITLE13=Claude Thornhill And His Orchestra, Snowfall
TTITLE14=Jack Teagarden And His Orchestra, Blue River
TTITLE15=Jimmie Lunceford And His Orchestra, Yard Dog Mazurka
TTITLE16=Benny Goodman And His Orchestra, The Earl
TTITLE17=Benny Carter And His Orchestra, Back Bay Boogie
TTITLE18=cab calloway And His Orchestra, Tappin' Off
TTITLE19=Louis Armstrong And His Orchestra, You Rascal You
TTITLE20=Jimmy Dorsey And His Orchestra, Murderistic
TTITLE21=Muggsy Spanier And His Orchestra, Chicago
TTITLE22=Stan Kenton And His Orchestra, Gambler Blues
TTITLE23=Lucky Millinder And His Orchestra, Savoy
EXTD=YEAR: 2006
EXTT0=
EXTT1=
EXTT2=
EXTT3=
EXTT4=
EXTT5=
EXTT6=
EXTT7=
EXTT8=
EXTT9=
EXTT10=
EXTT11=
EXTT12=
EXTT13=
EXTT14=
EXTT15=
EXTT16=
EXTT17=
EXTT18=
EXTT19=
EXTT20=
EXTT21=
EXTT22=
EXTT23=
PLAYORDER=
